<svg width="66" height="13" viewBox="0 0 66 13" fill="none" xmlns="http://www.w3.org/2000/svg">
<path d="M8.184 0.956H9.78V9.14H8.184V0.956ZM0.756 1.748H6.624V3.02H0.756V1.748ZM0.636 7.82L0.48 6.512C2.268 6.512 4.764 6.488 6.768 6.26L6.852 7.424C4.788 7.772 2.4 7.82 0.636 7.82ZM1.632 2.864H3.168V6.668H1.632V2.864ZM4.212 2.864H5.736V6.668H4.212V2.864ZM6.84 2.9H9.048V4.172H6.84V2.9ZM6.84 5.132H9.048V6.416H6.84V5.132ZM2.436 10.604H10.032V11.876H2.436V10.604ZM2.436 8.54H4.044V11.564H2.436V8.54ZM18.6711 0.956H20.2671V9.032H18.6711V0.956ZM19.8111 4.136H21.7431V5.444H19.8111V4.136ZM13.1031 10.604H20.6631V11.876H13.1031V10.604ZM13.1031 8.192H14.6991V11.168H13.1031V8.192ZM14.6151 1.664C16.3191 1.664 17.6391 2.852 17.6391 4.496C17.6391 6.128 16.3191 7.316 14.6151 7.316C12.9111 7.316 11.5911 6.128 11.5911 4.496C11.5911 2.852 12.9111 1.664 14.6151 1.664ZM14.6151 3.056C13.7991 3.056 13.1511 3.584 13.1511 4.496C13.1511 5.396 13.7991 5.924 14.6151 5.924C15.4431 5.924 16.0791 5.396 16.0791 4.496C16.0791 3.584 15.4431 3.056 14.6151 3.056Z" fill="#0081FF"/>
<path d="M23.4341 1.256H31.7141V2.444H23.4341V1.256ZM23.5181 3.86H31.6301V5.048H23.5181V3.86ZM24.8501 1.724H26.4461V4.628H24.8501V1.724ZM28.7021 1.724H30.2981V4.628H28.7021V1.724ZM22.5581 5.624H32.6021V6.872H22.5581V5.624ZM23.7101 7.484H31.3901V10.244H25.2941V11.276H23.7221V9.176H29.8181V8.624H23.7101V7.484ZM23.7221 10.832H31.6781V11.996H23.7221V10.832ZM33.8972 8.168H34.6892C36.0332 8.168 37.2212 8.132 38.6012 7.892L38.7332 9.176C37.3052 9.44 36.0812 9.476 34.6892 9.476H33.8972V8.168ZM33.8852 2.048H37.8092V6.296H35.4452V8.672H33.8972V5.048H36.2732V3.308H33.8852V2.048ZM41.6252 0.956H43.1372V12.068H41.6252V0.956ZM38.2652 4.736H39.9932V6.044H38.2652V4.736ZM39.3692 1.16H40.8452V11.54H39.3692V1.16ZM52.2563 0.943999H53.8643V12.092H52.2563V0.943999ZM47.8763 1.724C49.5563 1.724 50.7923 3.26 50.7923 5.684C50.7923 8.132 49.5563 9.668 47.8763 9.668C46.1963 9.668 44.9603 8.132 44.9603 5.684C44.9603 3.26 46.1963 1.724 47.8763 1.724ZM47.8763 3.176C47.0483 3.176 46.4843 4.052 46.4843 5.684C46.4843 7.34 47.0483 8.228 47.8763 8.228C48.7043 8.228 49.2563 7.34 49.2563 5.684C49.2563 4.052 48.7043 3.176 47.8763 3.176ZM59.8033 1.592H61.1953V2.396C61.1953 4.808 59.4793 6.944 56.5993 7.508L55.9153 6.188C58.4233 5.756 59.8033 3.992 59.8033 2.396V1.592ZM60.1273 1.592H61.5073V2.396C61.5073 4.028 62.8753 5.756 65.3953 6.188L64.7113 7.508C61.8313 6.944 60.1273 4.844 60.1273 2.396V1.592ZM55.6873 9.416H65.7433V10.712H55.6873V9.416Z" fill="black"/>
</svg>
